<svg id="Calque_1" data-name="Calque 1" xmlns="http://www.w3.org/2000/svg" viewBox="0 0 141.09 82.72"><path d="M39.27,22.93a8.16,8.16,0,0,0,3.34-.63,5.21,5.21,0,0,0,2-1.57,10.55,10.55,0,0,0,.72,2.58,7.26,7.26,0,0,0,2.72,3.26,8.11,8.11,0,0,0,4.52,1.19,11.72,11.72,0,0,0,2.91-.36,8.29,8.29,0,0,0,2.43-1V23.65L55.76,25a5,5,0,0,1-1.37.55,6.94,6.94,0,0,1-1.7.21,5.57,5.57,0,0,1-3.15-.85,5.24,5.24,0,0,1-2-2.44,10,10,0,0,1-.67-3.87v-.28a10,10,0,0,1,.63-3.69,5.52,5.52,0,0,1,1.86-2.51,4.83,4.83,0,0,1,3-.91,8.23,8.23,0,0,1,1.36.11,5.6,5.6,0,0,1,1.14.32,4.23,4.23,0,0,1,.91.52L56.05,15H58V11.14a7.82,7.82,0,0,0-2.4-1.39,9.11,9.11,0,0,0-3.2-.54,7.53,7.53,0,0,0-4.26,1.19,7.65,7.65,0,0,0-2.73,3.25,9.29,9.29,0,0,0-.57,1.76,5,5,0,0,0-.71-.84,9.55,9.55,0,0,0-4.31-2.09,13,13,0,0,1-2.44-.82,3.29,3.29,0,0,1-1.31-1,2.32,2.32,0,0,1-.4-1.36,2.74,2.74,0,0,1,.44-1.55,2.91,2.91,0,0,1,1.24-1,4.26,4.26,0,0,1,1.84-.37,6.08,6.08,0,0,1,2,.3,5.05,5.05,0,0,1,1.39.74L43,10h1.89V6.35A8.57,8.57,0,0,0,42.52,5a9.1,9.1,0,0,0-3.34-.57A7.1,7.1,0,0,0,36.06,5,5.12,5.12,0,0,0,34,6.79a4.4,4.4,0,0,0-.75,2.52,4.32,4.32,0,0,0,.66,2.38,5.4,5.4,0,0,0,1.95,1.75A11.63,11.63,0,0,0,39,14.6a10.54,10.54,0,0,1,2.49.84,3.22,3.22,0,0,1,1.3,1.1,2.89,2.89,0,0,1-.06,3,3,3,0,0,1-1.32,1,5.22,5.22,0,0,1-2.1.38,7.38,7.38,0,0,1-2-.27A7,7,0,0,1,35.5,20l-.41-2.84h-1.9V21a10.15,10.15,0,0,0,6.08,2Z"/><polygon points="25.68 29.13 18.76 26.31 17.71 26.07 17.71 26 18.76 25.78 25.68 22.89 25.68 20.4 15.58 25.08 15.58 26.93 25.68 31.62 25.68 29.13"/><polygon points="68.32 14.67 66.27 14.67 58.74 34.25 60.81 34.25 68.32 14.67"/><polygon points="81.08 25.09 70.49 20.41 70.49 22.82 77.89 25.72 78.93 25.97 78.93 26.04 77.89 26.25 70.49 29.2 70.49 31.62 81.08 26.93 81.08 25.09"/><path d="M28.07,47.5a5.5,5.5,0,0,0-1.25-.91,11.64,11.64,0,0,0-1.46-.67L24,45.41a6.93,6.93,0,0,1-1.09-.52,2.16,2.16,0,0,1-.67-.64,1.63,1.63,0,0,1-.22-.92,1.61,1.61,0,0,1,.54-1.3,3.5,3.5,0,0,1,2.11-.49,8,8,0,0,1,1.44.12c.29.05.57.11.85.18v1.07a.9.9,0,0,0,.26.71,1.09,1.09,0,0,0,.75.19.9.9,0,0,0,.65-.22.94.94,0,0,0,.22-.68V41.38a1.37,1.37,0,0,0-.1-.56,1.05,1.05,0,0,0-.63-.52l-.51-.17L26.79,40c-.3-.06-.63-.11-1-.16a8.76,8.76,0,0,0-1.17-.07,5.49,5.49,0,0,0-3.21.86,3.2,3.2,0,0,0-1.32,2.79,3.25,3.25,0,0,0,.41,1.69,3.7,3.7,0,0,0,1,1.14,7.21,7.21,0,0,0,1.41.78c.5.2,1,.41,1.55.61s.82.33,1.2.52a3.79,3.79,0,0,1,.9.59,2.65,2.65,0,0,1,.58.78,3.27,3.27,0,0,1,0,2.28,1.91,1.91,0,0,1-.56.74,2.71,2.71,0,0,1-.92.44,6.71,6.71,0,0,1-3,0,10.41,10.41,0,0,1-1.14-.31v-1.2a.93.93,0,0,0-.23-.67A1.17,1.17,0,0,0,20,50.68a.86.86,0,0,0-.32.75V53a1.52,1.52,0,0,0,.11.68,1.22,1.22,0,0,0,.58.5,4.42,4.42,0,0,0,.73.27c.29.09.62.17,1,.25s.74.13,1.14.18.8.07,1.18.07a5.4,5.4,0,0,0,3.48-1.08,4,4,0,0,0,1.37-3.28,4.36,4.36,0,0,0-.32-1.76A4.28,4.28,0,0,0,28.07,47.5Z"/><path d="M39.45,52.88l-.73-.06v-4.6a4.42,4.42,0,0,0-.3-1.74,3,3,0,0,0-.86-1.18,3.16,3.16,0,0,0-1.27-.63,8.38,8.38,0,0,0-2.57-.11,7.63,7.63,0,0,0-.9.15,6.17,6.17,0,0,0-.72.21l-.43.16a1,1,0,0,0-.58.45,1.25,1.25,0,0,0-.15.65v1.3a.87.87,0,0,0,.22.67,1,1,0,0,0,.79.23.85.85,0,0,0,.69-.27.87.87,0,0,0,.2-.6v-.92l.54-.15a5.65,5.65,0,0,1,2.28,0,1.32,1.32,0,0,1,.59.26,1.43,1.43,0,0,1,.41.54,2.39,2.39,0,0,1,.18,1V49h-2.6a5.74,5.74,0,0,0-2.72.53,2.33,2.33,0,0,0-1.18,2.26,2.79,2.79,0,0,0,.92,2.28,3.85,3.85,0,0,0,2.49.7,8.76,8.76,0,0,0,1.54-.12,7.84,7.84,0,0,0,1.14-.29,4.81,4.81,0,0,0,.75-.33,1.48,1.48,0,0,0,.31.3,1.91,1.91,0,0,0,1.15.33h.59a.81.81,0,0,0,.59-.23A1,1,0,0,0,40,53.7a.79.79,0,0,0-.28-.66Zm-2.61-.68-.22.14a4.14,4.14,0,0,1-.63.3,5.21,5.21,0,0,1-.9.25,4.4,4.4,0,0,1-2.54-.18c-.2-.13-.31-.44-.31-.92s.23-.7.32-.74a3.85,3.85,0,0,1,1.68-.27h2.6Z"/><path d="M44.3,53.08a.83.83,0,0,0-.58-.2h-.29V48.29a2.51,2.51,0,0,1,.67-1.45,1.93,1.93,0,0,1,1.49-.52c.75,0,.95.29,1,.38A2.26,2.26,0,0,1,46.94,48l0,4.87h-.33a.91.91,0,0,0-.53.14c-.15.1-.32.3-.32.81a.78.78,0,0,0,.83.85h2.44a.87.87,0,0,0,.63-.23,1,1,0,0,0,.22-.75.81.81,0,0,0-.28-.66.86.86,0,0,0-.55-.16h-.26v-4.5A4.06,4.06,0,0,1,49,47.5a1.94,1.94,0,0,1,.37-.63,1.72,1.72,0,0,1,.58-.4,2.33,2.33,0,0,1,.89-.15,1.37,1.37,0,0,1,1.06.37,2,2,0,0,1,.37,1.38v4.81H52a.9.9,0,0,0-.55.16.91.91,0,0,0-.27.79.83.83,0,0,0,.22.62.75.75,0,0,0,.58.23h2.49a.76.76,0,0,0,.64-.28,1,1,0,0,0,.16-.7.87.87,0,0,0-.2-.61.86.86,0,0,0-.6-.21H54.2V48a3.73,3.73,0,0,0-.8-2.53,3.11,3.11,0,0,0-2.45-1,4.29,4.29,0,0,0-1.22.16,3.22,3.22,0,0,0-1,.45,3.5,3.5,0,0,0-.54.47,2.63,2.63,0,0,0-.4-.42,2.92,2.92,0,0,0-.91-.49,4,4,0,0,0-1.21-.17,3.81,3.81,0,0,0-2.13.56,1.88,1.88,0,0,0-.23.16,1,1,0,0,0-1-.59H41.27a.78.78,0,0,0-.69.33,1.08,1.08,0,0,0-.13.61,1,1,0,0,0,.17.62.8.8,0,0,0,.65.27h.28v6.41H41.2a.75.75,0,0,0-.77.8v.19a.76.76,0,0,0,.77.81h2.52a.74.74,0,0,0,.57-.22,1,1,0,0,0,.23-.76A.83.83,0,0,0,44.3,53.08Z"/><path d="M65.32,46a4.14,4.14,0,0,0-1.5-1.11,5.09,5.09,0,0,0-2-.38,4.43,4.43,0,0,0-2.66.75c-.11.09-.23.18-.33.28V40.44A.8.8,0,0,0,58,39.6H56.66a.79.79,0,0,0-.59.22.9.9,0,0,0-.23.68,1.05,1.05,0,0,0,.14.61.76.76,0,0,0,.68.32h.28V52.88h-.31a.78.78,0,0,0-.82.95.83.83,0,0,0,.23.63.77.77,0,0,0,.59.22h1.25a1.58,1.58,0,0,0,.41,0,.76.76,0,0,0,.53-.76c.11.1.22.18.34.27a4.59,4.59,0,0,0,2.63.69,5.09,5.09,0,0,0,2-.37,4.23,4.23,0,0,0,1.52-1.07,4.32,4.32,0,0,0,.92-1.64,6.44,6.44,0,0,0,.3-2,6.68,6.68,0,0,0-.3-2A4.78,4.78,0,0,0,65.32,46Zm-.89,5.09a2.89,2.89,0,0,1-.54,1,2.28,2.28,0,0,1-.87.63,3.62,3.62,0,0,1-2.65,0,2.64,2.64,0,0,1-.89-.71,2.91,2.91,0,0,1-.5-1,4.34,4.34,0,0,1-.17-1.25A4.87,4.87,0,0,1,59,48.44a3,3,0,0,1,.52-1.08,2.53,2.53,0,0,1,.88-.73,3,3,0,0,1,1.35-.28A3.14,3.14,0,0,1,63,46.6a2.18,2.18,0,0,1,.86.66,3,3,0,0,1,.55,1.06,4.81,4.81,0,0,1,.19,1.41A4.65,4.65,0,0,1,64.43,51.11Z"/><path d="M68.23,47.48a.91.91,0,0,0,.22.67,1.05,1.05,0,0,0,.8.23.86.86,0,0,0,.69-.27.9.9,0,0,0,.19-.6v-.92l.55-.15a5.65,5.65,0,0,1,2.28,0,1.37,1.37,0,0,1,.59.26,1.54,1.54,0,0,1,.41.54,2.57,2.57,0,0,1,.17,1V49H71.54a5.69,5.69,0,0,0-2.72.53,2.33,2.33,0,0,0-1.18,2.26,2.82,2.82,0,0,0,.91,2.28,3.87,3.87,0,0,0,2.49.7,8.88,8.88,0,0,0,1.55-.12,7.36,7.36,0,0,0,1.13-.29,4.42,4.42,0,0,0,.75-.33,1.77,1.77,0,0,0,.31.3,1.93,1.93,0,0,0,1.15.33h.6a.78.78,0,0,0,.58-.23,1,1,0,0,0,.22-.75.81.81,0,0,0-.27-.66l-.31-.16L76,52.82v-4.6a4.43,4.43,0,0,0-.29-1.74,3,3,0,0,0-.86-1.18,3.16,3.16,0,0,0-1.27-.63,8.44,8.44,0,0,0-3.48,0,6,6,0,0,0-.71.21l-.43.16a1,1,0,0,0-.59.45,1.25,1.25,0,0,0-.15.65Zm5.9,4.72a2.11,2.11,0,0,1-.22.14,4,4,0,0,1-.62.3,5.21,5.21,0,0,1-.9.25,4.38,4.38,0,0,1-2.54-.18c-.21-.13-.31-.44-.31-.92s.22-.7.32-.74a3.81,3.81,0,0,1,1.68-.27h2.59Z"/><path d="M55,71.49c-.26.12-.51.22-.75.31a6.76,6.76,0,0,1-.72.23,6.55,6.55,0,0,1-.85.14,9.17,9.17,0,0,1-1.13.06,6.68,6.68,0,0,1-2.43-.4,3.89,3.89,0,0,1-1.57-1.09A4.59,4.59,0,0,1,46.65,69a8.32,8.32,0,0,1-.31-2.38,9.53,9.53,0,0,1,.31-2.53,5.07,5.07,0,0,1,.93-1.89A4.32,4.32,0,0,1,49.17,61a6,6,0,0,1,2.41-.44,5.83,5.83,0,0,1,1.68.19A7.61,7.61,0,0,1,54,61v1.33a.87.87,0,0,0,.26.69,1.07,1.07,0,0,0,.74.19,1,1,0,0,0,.63-.18.89.89,0,0,0,.27-.7V60.79a1.51,1.51,0,0,0-.13-.7,1.18,1.18,0,0,0-.49-.44A7.23,7.23,0,0,0,53.83,59a7.53,7.53,0,0,0-2.25-.28,8.12,8.12,0,0,0-3.12.56,6.1,6.1,0,0,0-2.28,1.63,6.85,6.85,0,0,0-1.34,2.52,11.19,11.19,0,0,0-.42,3.16,10,10,0,0,0,.43,3.07,6.07,6.07,0,0,0,1.35,2.38,5.84,5.84,0,0,0,2.28,1.51,8.57,8.57,0,0,0,3.08.51,9.62,9.62,0,0,0,2-.18,6.8,6.8,0,0,0,1.39-.43,3.2,3.2,0,0,0,.65-.35,1.14,1.14,0,0,0,.53-.93.77.77,0,0,0-.21-.56A.76.76,0,0,0,55,71.49Z"/><path d="M65.1,65.1A4.24,4.24,0,0,0,63.51,64a6.24,6.24,0,0,0-4.2,0,4.28,4.28,0,0,0-1.6,1.08,4.56,4.56,0,0,0-1,1.66,6.51,6.51,0,0,0-.32,2.07,5.28,5.28,0,0,0,1.28,3.71,5.53,5.53,0,0,0,7.4,0,5.24,5.24,0,0,0,1.3-3.71,6.2,6.2,0,0,0-.33-2.07A4.57,4.57,0,0,0,65.1,65.1Zm-2.31,6.81a3.94,3.94,0,0,1-2.73,0,2.64,2.64,0,0,1-.94-.65,2.77,2.77,0,0,1-.58-1,4.44,4.44,0,0,1-.21-1.41,4.6,4.6,0,0,1,.21-1.42,3,3,0,0,1,.58-1,2.52,2.52,0,0,1,.94-.65,4,4,0,0,1,2.73,0,2.4,2.4,0,0,1,.93.65,3,3,0,0,1,.58,1,4.6,4.6,0,0,1,.21,1.42,4.44,4.44,0,0,1-.21,1.41,2.83,2.83,0,0,1-.58,1A2.43,2.43,0,0,1,62.79,71.91Z"/><path d="M81.41,72h-.28V67.13a3.7,3.7,0,0,0-.81-2.53,3.08,3.08,0,0,0-2.44-.95,4.7,4.7,0,0,0-1.23.16,3.28,3.28,0,0,0-1,.46,3,3,0,0,0-.54.47,2.28,2.28,0,0,0-.4-.42,2.83,2.83,0,0,0-.91-.49,3.71,3.71,0,0,0-1.21-.18,3.81,3.81,0,0,0-2.13.56l-.24.16a1,1,0,0,0-1-.58H68.2a.77.77,0,0,0-.69.32,1,1,0,0,0-.14.62,1,1,0,0,0,.18.62.81.81,0,0,0,.65.26h.28V72h-.36a.76.76,0,0,0-.77.8V73a.76.76,0,0,0,.77.8h2.52a.81.81,0,0,0,.58-.21,1,1,0,0,0,.23-.77.73.73,0,0,0-.81-.82h-.28V67.43A2.68,2.68,0,0,1,71,66a1.94,1.94,0,0,1,1.49-.52c.75,0,.95.29,1,.38a2.38,2.38,0,0,1,.33,1.31l0,4.87h-.34a.91.91,0,0,0-.53.14c-.14.1-.31.3-.31.82a.82.82,0,0,0,.22.61.76.76,0,0,0,.6.23H76a.88.88,0,0,0,.63-.23,1,1,0,0,0,.21-.75.84.84,0,0,0-.27-.66A.86.86,0,0,0,76,72h-.26v-4.5a4,4,0,0,1,.22-.88,2,2,0,0,1,.38-.63,1.72,1.72,0,0,1,.58-.4,2.28,2.28,0,0,1,.88-.15,1.41,1.41,0,0,1,1.07.37,2.06,2.06,0,0,1,.36,1.38V72H79a.88.88,0,0,0-.55.16.94.94,0,0,0-.28.8.83.83,0,0,0,.22.61.78.78,0,0,0,.59.23h2.48a.77.77,0,0,0,.64-.27,1.08,1.08,0,0,0,.17-.71.75.75,0,0,0-.81-.82Zm-8.1,1Z"/><path d="M92.23,65.14A4.24,4.24,0,0,0,90.72,64a4.84,4.84,0,0,0-2-.39,4.41,4.41,0,0,0-2.66.76c-.12.09-.24.18-.35.28a1,1,0,0,0-1.08-.9H83.55A.77.77,0,0,0,83,64a1.2,1.2,0,0,0,0,1.31.75.75,0,0,0,.64.28h.28v10.8h-.28a.91.91,0,0,0-.52.14c-.15.09-.32.29-.32.82a.75.75,0,0,0,.84.84h2.67A.79.79,0,0,0,86.8,78a1,1,0,0,0,.23-.76.83.83,0,0,0-.22-.62.81.81,0,0,0-.59-.21h-.49V73l.35.26a4.57,4.57,0,0,0,2.63.7,5,5,0,0,0,2-.38,4.13,4.13,0,0,0,1.53-1.06,4.47,4.47,0,0,0,.92-1.64,6.5,6.5,0,0,0,.3-2,6.37,6.37,0,0,0-.31-2A5.08,5.08,0,0,0,92.23,65.14Zm-5,6.72a2.44,2.44,0,0,1-.89-.71,3,3,0,0,1-.51-1,4.71,4.71,0,0,1-.17-1.25,4.87,4.87,0,0,1,.18-1.31,3.39,3.39,0,0,1,.52-1.08,2.44,2.44,0,0,1,.89-.72,2.87,2.87,0,0,1,1.35-.28,3.09,3.09,0,0,1,1.27.24,2.31,2.31,0,0,1,.87.66,3,3,0,0,1,.54,1.06,4.85,4.85,0,0,1,.2,1.41,5,5,0,0,1-.19,1.38,3.15,3.15,0,0,1-.54,1,2.38,2.38,0,0,1-.87.64A3.62,3.62,0,0,1,87.28,71.86Z"/><path d="M103.66,72l-.74,0V67.36a4.62,4.62,0,0,0-.29-1.74,3,3,0,0,0-.86-1.18,3.3,3.3,0,0,0-1.27-.63,8.45,8.45,0,0,0-2.58-.11,8,8,0,0,0-.9.15,6.78,6.78,0,0,0-.72.22l-.42.15a1.08,1.08,0,0,0-.59.45,1.25,1.25,0,0,0-.15.65v1.3a.94.94,0,0,0,.22.68,1,1,0,0,0,.8.22.87.87,0,0,0,.69-.27.89.89,0,0,0,.19-.59v-.92a3.33,3.33,0,0,1,.55-.15,5.43,5.43,0,0,1,2.28,0,1.46,1.46,0,0,1,.58.26,1.41,1.41,0,0,1,.42.55,2.49,2.49,0,0,1,.17,1v.8H98.45a5.76,5.76,0,0,0-2.73.53A2.34,2.34,0,0,0,94.55,71a2.79,2.79,0,0,0,.91,2.28,3.85,3.85,0,0,0,2.49.71,8.68,8.68,0,0,0,1.54-.13,7.84,7.84,0,0,0,1.14-.29,4.42,4.42,0,0,0,.75-.33,1.26,1.26,0,0,0,.31.3,1.91,1.91,0,0,0,1.15.33h.59a.79.79,0,0,0,.59-.23,1,1,0,0,0,.22-.75.81.81,0,0,0-.28-.66Zm-6.89-1.83a3.83,3.83,0,0,1,1.68-.26H101v1.42l-.22.14a4,4,0,0,1-.62.29,5.48,5.48,0,0,1-.9.25,4.34,4.34,0,0,1-2.55-.18c-.2-.13-.3-.44-.3-.92S96.67,70.24,96.77,70.19Z"/><path d="M114.22,72l-.46,0a.75.75,0,0,1,0-.26V67.42a4.71,4.71,0,0,0-.19-1.36,3.25,3.25,0,0,0-.62-1.23,3,3,0,0,0-1.16-.87,4.17,4.17,0,0,0-1.66-.31,4.05,4.05,0,0,0-2.3.6l-.24.18a1,1,0,0,0-1-.64h-1.07a.79.79,0,0,0-.63.26,1,1,0,0,0-.19.68.84.84,0,0,0,.22.65.8.8,0,0,0,.6.23h.29V72h-.34a.77.77,0,0,0-.79.8V73a.77.77,0,0,0,.79.8h2.5a.81.81,0,0,0,.59-.23,1,1,0,0,0,.22-.75.86.86,0,0,0-.23-.62.83.83,0,0,0-.58-.2h-.28V67.49a2.92,2.92,0,0,1,.25-.84,2,2,0,0,1,.45-.63,2,2,0,0,1,.67-.41,2.93,2.93,0,0,1,1-.15,1.58,1.58,0,0,1,1.4.53,2.83,2.83,0,0,1,.45,1.68v4.22a2.45,2.45,0,0,0,.13.85,1.64,1.64,0,0,0,.43.64,1.57,1.57,0,0,0,.61.35,2.27,2.27,0,0,0,.65.09h.55a.81.81,0,0,0,.61-.23,1,1,0,0,0,.22-.75.81.81,0,0,0-.28-.66A.86.86,0,0,0,114.22,72Z"/><path d="M125.29,64a.76.76,0,0,0-.6-.23h-2.22a.78.78,0,0,0-.63.26,1,1,0,0,0-.18.72.81.81,0,0,0,.21.6l.31.22h.15l-2,5.11-2.05-5.12.29,0,.17-.16a1,1,0,0,0,.22-.74,1,1,0,0,0-.16-.59.79.79,0,0,0-.64-.27h-2.2a.78.78,0,0,0-.59.23,1,1,0,0,0-.22.75.8.8,0,0,0,.27.65.88.88,0,0,0,.56.17h.27l3.1,7.58-.75,1.9a5.83,5.83,0,0,1-.41.83,1.7,1.7,0,0,1-.33.42.67.67,0,0,1-.23.14,1.24,1.24,0,0,1-.62,0l-.41-.16a.76.76,0,0,0-.68.11.74.74,0,0,0-.29.62,1.14,1.14,0,0,0,.8,1.09,3,3,0,0,0,1.06.19,2.52,2.52,0,0,0,.82-.14,2.16,2.16,0,0,0,.8-.48,3.4,3.4,0,0,0,.69-.85,9.76,9.76,0,0,0,.61-1.25l4-10h.33a.93.93,0,0,0,.52-.13c.14-.1.32-.3.32-.83A.83.83,0,0,0,125.29,64Zm-7,.63Z"/></svg>