<?xml version="1.0" encoding="UTF-8" standalone="no"?>
<svg
   xmlns:dc="http://purl.org/dc/elements/1.1/"
   xmlns:cc="http://creativecommons.org/ns#"
   xmlns:rdf="http://www.w3.org/1999/02/22-rdf-syntax-ns#"
   xmlns:svg="http://www.w3.org/2000/svg"
   xmlns="http://www.w3.org/2000/svg"
   xmlns:xlink="http://www.w3.org/1999/xlink"
   xmlns:sodipodi="http://sodipodi.sourceforge.net/DTD/sodipodi-0.dtd"
   xmlns:inkscape="http://www.inkscape.org/namespaces/inkscape"
   id="Calque_1"
   data-name="Calque 1"
   viewBox="0 0 65.500002 29.827045"
   version="1.1"
   sodipodi:docname="sc_couleurs_responsive.svg"
   width="65.5"
   height="29.827045"
   inkscape:version="1.0.2 (1.0.2+r75+1)">
  <metadata
     id="metadata49">
    <rdf:RDF>
      <cc:Work
         rdf:about="">
        <dc:format>image/svg+xml</dc:format>
        <dc:type
           rdf:resource="http://purl.org/dc/dcmitype/StillImage" />
        <dc:title></dc:title>
      </cc:Work>
    </rdf:RDF>
  </metadata>
  <sodipodi:namedview
     pagecolor="#ffffff"
     bordercolor="#666666"
     borderopacity="1"
     objecttolerance="10"
     gridtolerance="10"
     guidetolerance="10"
     inkscape:pageopacity="0"
     inkscape:pageshadow="2"
     inkscape:window-width="1920"
     inkscape:window-height="1016"
     id="namedview47"
     showgrid="false"
     showguides="false"
     inkscape:zoom="9.9835468"
     inkscape:cx="69.544998"
     inkscape:cy="36.353408"
     inkscape:window-x="1920"
     inkscape:window-y="27"
     inkscape:window-maximized="1"
     inkscape:current-layer="Calque_1" />
  <defs
     id="defs12">
    <style
       id="style2">.cls-1{fill:url(#Dégradé_sans_nom_6);}.cls-2{fill:url(#Dégradé_sans_nom_6-2);}.cls-3{fill:url(#Dégradé_sans_nom_6-3);}.cls-4{fill:url(#Dégradé_sans_nom_6-4);}.cls-5{fill:#8fd0ee;}</style>
    <linearGradient
       id="Dégradé_sans_nom_6"
       x1="12.2"
       y1="17.959999"
       x2="75.790001"
       y2="14.4"
       gradientUnits="userSpaceOnUse">
      <stop
         offset="0"
         stop-color="#f4cc6a"
         id="stop4" />
      <stop
         offset="1"
         stop-color="#dd6e8e"
         id="stop6" />
    </linearGradient>
    <linearGradient
       id="Dégradé_sans_nom_6-2"
       x1="12.7"
       y1="26.74"
       x2="76.279999"
       y2="23.18"
       xlink:href="#D%C3%A9grad%C3%A9_sans_nom_6" />
    <linearGradient
       id="Dégradé_sans_nom_6-3"
       x1="12.73"
       y1="27.309999"
       x2="76.32"
       y2="23.75"
       xlink:href="#D%C3%A9grad%C3%A9_sans_nom_6" />
    <linearGradient
       id="Dégradé_sans_nom_6-4"
       x1="12.84"
       y1="29.24"
       x2="76.419998"
       y2="25.68"
       xlink:href="#D%C3%A9grad%C3%A9_sans_nom_6" />
    <linearGradient
       inkscape:collect="always"
       xlink:href="#D%C3%A9grad%C3%A9_sans_nom_6"
       id="linearGradient51"
       gradientUnits="userSpaceOnUse"
       x1="12.2"
       y1="17.959999"
       x2="75.790001"
       y2="14.4"
       gradientTransform="matrix(0.96183201,0,0,0.90521871,-13.985345,-3.0037407)" />
  </defs>
  <path
     class="cls-1"
     d="m 23.785807,17.752924 a 7.84855,7.3865846 0 0 0 3.212525,-0.570288 5.011145,4.7161895 0 0 0 1.923655,-1.421193 10.147325,9.5500574 0 0 0 0.69252,2.335464 6.9829006,6.5718878 0 0 0 2.616188,2.951013 7.8004581,7.3413237 0 0 0 4.347487,1.077211 11.272675,10.609163 0 0 0 2.798925,-0.325879 7.9735876,7.5042631 0 0 0 2.33725,-0.905219 v -2.489351 l -2.067937,1.222045 a 4.80916,4.5260935 0 0 1 -1.317713,0.49787 6.675115,6.2822178 0 0 1 -1.63511,0.190096 5.357405,5.0420682 0 0 1 -3.029765,-0.769436 5.04,4.743346 0 0 1 -1.923675,-2.208733 9.6183206,9.0521871 0 0 1 -0.644425,-3.503197 v -0.253461 a 9.6183206,9.0521871 0 0 1 0.60595,-3.340257 5.3093125,4.9968073 0 0 1 1.789013,-2.272099 4.6456493,4.3722064 0 0 1 2.885488,-0.823749 7.9158778,7.44995 0 0 1 1.308099,0.099574 5.38626,5.0692248 0 0 1 1.096492,0.2896699 4.06855,3.8290751 0 0 1 0.875258,0.4707138 l 0.269325,2.5708213 h 1.875572 V 7.0803957 a 7.5215271,7.0788103 0 0 0 -2.308397,-1.258254 8.76229,8.2465424 0 0 0 -3.077875,-0.4888181 7.2425953,6.8162969 0 0 0 -4.0974,1.0772102 7.358015,6.9249231 0 0 0 -2.6258,2.9419608 8.93542,8.4094818 0 0 0 -0.54825,1.5931854 4.80916,4.5260935 0 0 0 -0.6829,-0.760384 9.1854963,8.6448386 0 0 0 -4.1455,-1.8919072 12.503825,11.767843 0 0 1 -2.346855,-0.7422794 3.1644275,2.9781695 0 0 1 -1.26,-0.9052187 2.23145,2.1001074 0 0 1 -0.384745,-1.2310974 2.63542,2.4802993 0 0 1 0.423213,-1.403089 2.7989317,2.6341864 0 0 1 1.192662,-0.9052187 4.097405,3.8562317 0 0 1 1.769775,-0.334931 5.8479394,5.5037297 0 0 1 1.923675,0.2715657 4.8572525,4.5713545 0 0 1 1.33695,0.6698618 l 0.403956,2.3354643 h 1.817869 V 2.7443981 a 8.2429007,7.7577243 0 0 0 -2.27955,-1.2220453 8.7526721,8.2374902 0 0 0 -3.212515,-0.5159746 6.8290075,6.4270528 0 0 0 -3.00091,0.5159746 4.92458,4.6347198 0 0 0 -1.981375,1.6203415 4.232061,3.9829623 0 0 0 -0.721375,2.2811512 4.155115,3.9105448 0 0 0 0.6348,2.1544205 5.1938927,4.888181 0 0 0 1.875575,1.5841327 11.1861,10.527694 0 0 0 3.02015,1.0500533 10.1377,9.5410052 0 0 1 2.394975,0.760384 3.0971,2.9148042 0 0 1 1.250375,0.995741 2.779695,2.6160821 0 0 1 -0.05775,2.715656 2.8854963,2.7156561 0 0 1 -1.269625,0.905219 5.0207631,4.7252416 0 0 1 -2.01985,0.343983 7.0983206,6.6805141 0 0 1 -1.923665,-0.244409 6.7328249,6.3365309 0 0 1 -1.74091,-0.588393 l -0.39435,-2.570821 h -1.827475 v 3.47604 a 9.7625972,9.1879699 0 0 0 5.847929,1.810438 z"
     id="path14"
     style="fill:url(#linearGradient51);stroke-width:0.933096" />
  <polygon
     class="cls-2"
     points="25.68,20.4 15.58,25.08 15.58,26.93 25.68,31.62 25.68,29.13 18.76,26.31 17.71,26.07 17.71,26 18.76,25.78 25.68,22.89 "
     id="polygon16"
     style="fill:url(#D%C3%A9grad%C3%A9_sans_nom_6-2)"
     transform="matrix(0.96183206,0,0,0.90521871,-13.985344,-3.0037407)" />
  <polygon
     class="cls-3"
     points="68.32,14.67 66.27,14.67 58.74,34.25 60.81,34.25 "
     id="polygon18"
     style="fill:url(#D%C3%A9grad%C3%A9_sans_nom_6-3)"
     transform="matrix(0.96183206,0,0,0.90521871,-13.985344,-3.0037407)" />
  <polygon
     class="cls-4"
     points="77.89,26.25 70.49,29.2 70.49,31.62 81.08,26.93 81.08,25.09 70.49,20.41 70.49,22.82 77.89,25.72 78.93,25.97 78.93,26.04 "
     id="polygon20"
     style="fill:url(#D%C3%A9grad%C3%A9_sans_nom_6-4)"
     transform="matrix(0.96183206,0,0,0.90521871,-13.985344,-3.0037407)" />
</svg>
